# Created by Open3D 
# object name: barrier_transformed_0
# number of vertices: 243
# number of triangles: 482
v -3.20217 1.05587 -2.56043
vn -0.632854 -0.349276 0.691015
v -3.28474 1.08298 -2.65238
vn -0.862447 -0.280261 0.421472
v -3.19355 0.853342 -2.7023
vn -0.698621 -0.478503 0.531943
v -3.3913 1.13026 -3.0132
vn -0.99659 0.0181949 -0.0804777
v -3.36495 1.0353 -3.01981
vn -0.889895 -0.446789 -0.0920145
v -3.37199 1.04546 -2.96838
vn -0.90499 -0.417472 0.0819152
v -3.30946 1.05586 -3.16308
vn -0.691054 -0.349275 -0.632812
v -3.21751 1.08299 -3.24566
vn -0.42148 -0.280242 -0.86245
v -3.16758 0.853342 -3.15448
vn -0.531957 -0.478503 -0.698611
v -3.2498 1.24522 -3.23613
vn -0.58416 0.248783 -0.77257
v -3.36277 1.13503 -3.10261
vn -0.878248 0.168375 -0.447583
v -2.6572 0.887978 -3.05806
vn 0.86591 -0.394196 -0.307913
v -2.52988 1.10492 -2.93762
vn 0.943924 -0.157094 -0.290396
v -2.623 0.903037 -2.97286
vn 0.889388 -0.39131 -0.23636
v -2.63376 1.24519 -3.21071
vn 0.772573 0.248679 -0.5842
v -2.62422 1.08298 -3.17842
vn 0.862454 -0.28025 -0.421466
v -2.92187 1.30441 -3.33069
vn -0.0173701 0.367437 -0.929886
v -3.19533 1.39181 -3.17251
vn -0.336407 0.658132 -0.673567
v -2.97673 1.10493 -3.34001
vn -0.290477 -0.157042 -0.943907
v -2.85674 1.1302 -3.35221
vn 0.0805175 0.017996 -0.996591
v -2.90154 1.04546 -3.3329
vn -0.0819294 -0.417533 -0.904961
v -3.01195 0.903036 -3.24689
vn -0.236393 -0.391311 -0.889378
v -3.09715 0.887976 -3.21269
vn -0.307909 -0.394216 -0.865902
v -2.70681 1.05587 -3.27035
vn 0.632843 -0.349289 -0.691019
v -3.13413 0.863827 -2.63993
vn -0.455116 -0.524141 0.719823
v -3.11886 0.764252 -2.73151
vn -0.447756 -0.756281 0.477026
v -3.3791 1.10496 -2.89318
vn -0.943936 -0.156918 0.29045
v -2.51772 1.13001 -2.81754
vn 0.996625 0.0177738 0.080137
v -2.55569 1.03039 -2.7717
vn 0.816778 -0.473199 0.330087
v -2.54405 1.03526 -2.81093
vn 0.889806 -0.447016 0.0917756
v -2.77054 0.764218 -2.75115
vn 0.477101 -0.756306 0.447635
v -2.74134 0.853314 -2.67639
vn 0.532101 -0.478572 0.698453
v -2.82402 0.806442 -2.66621
vn 0.344827 -0.650054 0.677145
v -2.69145 1.08298 -2.58515
vn 0.421607 -0.280306 0.862366
v -2.59943 1.05587 -2.66782
vn 0.691231 -0.349177 0.632673
v -2.97075 0.680854 -2.91735
vn -0.0175894 -0.999841 0.00291709
v -2.93252 0.682902 -2.95297
vn 0.0667202 -0.994568 -0.079899
v -2.90701 0.684543 -2.89666
vn 0.103214 -0.993551 0.0469352
v -3.00619 0.685939 -2.88277
vn -0.140808 -0.986268 0.0863002
v -3.01177 0.684396 -2.92688
vn -0.128891 -0.990531 -0.047278
v -3.02187 0.712108 -2.77325
vn -0.186648 -0.913762 0.360833
v -3.12461 0.729384 -2.82909
vn -0.439058 -0.870853 0.221004
v -3.03075 0.75082 -2.7028
vn -0.181345 -0.811052 0.556155
v -3.35328 1.03042 -3.05915
vn -0.816842 -0.473045 -0.330149
v -3.36972 1.30452 -2.94803
vn -0.929846 0.367538 0.0173794
v -2.63747 0.863913 -2.95173
vn 0.868143 -0.481104 -0.121928
v -2.67631 0.844219 -3.04384
vn 0.801582 -0.518976 -0.296868
v -2.68921 0.807136 -2.80513
vn 0.688953 -0.66943 0.277863
v -2.65558 0.829463 -2.87332
vn 0.796286 -0.602249 0.0567865
v -2.64921 0.862713 -2.80023
vn 0.808912 -0.519421 0.275432
v -2.99082 0.863913 -3.23242
vn -0.121923 -0.481102 -0.868145
v -2.91241 0.829397 -3.21426
vn 0.0568402 -0.602909 -0.795783
v -2.99458 0.808632 -3.19402
vn -0.146233 -0.628964 -0.763558
v -2.81075 1.03042 -3.3142
vn 0.330191 -0.473037 -0.816829
v -2.7748 0.863866 -3.19087
vn 0.455234 -0.523777 -0.720013
v -3.11609 0.909077 -3.21441
vn -0.351713 -0.365206 -0.861929
v -3.08294 0.84421 -3.19357
vn -0.296922 -0.519021 -0.801533
v -2.76727 1.13499 -3.32368
vn 0.44756 0.16824 -0.878286
v -2.65547 0.909081 -3.07699
vn 0.861956 -0.365185 -0.351669
v -2.70519 0.80651 -3.04579
vn 0.678015 -0.649491 -0.344176
v -2.78959 0.764794 -3.09971
vn 0.449121 -0.754769 -0.478136
v -2.71534 0.853394 -3.12845
vn 0.698972 -0.478053 -0.531887
v -3.13869 0.764376 -3.07966
vn -0.478013 -0.755906 -0.447336
v -3.22997 0.863837 -3.09503
vn -0.719914 -0.524018 -0.455114
v -3.25976 0.862713 -3.0306
vn -0.808847 -0.519433 -0.275601
v -3.0441 0.72682 -3.07914
vn -0.245175 -0.881244 -0.404102
v -3.04783 0.767319 -3.13849
vn -0.201733 -0.766237 -0.610069
v -2.95628 0.732331 -3.10758
vn -0.0354121 -0.853711 -0.519541
v -3.03233 0.69427 -2.98514
vn -0.202909 -0.95192 -0.229514
v -3.09734 0.712336 -2.98222
vn -0.365458 -0.911768 -0.187403
v -2.94261 0.770835 -3.16272
vn 0.000865715 -0.74584 -0.666124
v -3.21158 1.39182 -2.67454
vn -0.673536 0.658173 0.33639
v -3.27522 1.2452 -2.62011
vn -0.772629 0.248718 0.584109
v -3.14171 1.13499 -2.50712
vn -0.447564 0.168253 0.878281
v -3.25178 0.887983 -2.77273
vn -0.865916 -0.394128 0.307981
v -3.23266 0.844204 -2.78694
vn -0.801499 -0.519067 0.296931
v -2.93225 1.10489 -2.4908
vn 0.290487 -0.157171 0.943883
v -2.79287 0.909072 -2.6164
vn 0.351819 -0.365208 0.861885
v -2.81181 0.887973 -2.61811
vn 0.307964 -0.394215 0.865882
v -2.82601 0.844202 -2.63724
vn 0.297019 -0.519059 0.801472
v -3.09825 1.03041 -2.51661
vn -0.330169 -0.473073 0.816817
v -3.05227 1.13014 -2.4786
vn -0.0804638 0.0177978 0.996599
v -3.05889 1.03529 -2.50493
vn -0.091988 -0.446882 0.889851
v -2.65915 1.2452 -2.59469
vn 0.584316 0.248663 0.77249
v -2.85932 0.768722 -2.69121
vn 0.218705 -0.755338 0.617764
v -2.67582 0.808699 -2.95551
vn 0.764081 -0.628281 -0.146433
v -2.73019 0.768819 -3.01057
vn 0.618897 -0.75436 -0.218878
v -2.74187 0.75082 -2.8392
vn 0.556238 -0.811053 0.181086
v -2.7644 0.73099 -2.91475
vn 0.49605 -0.868242 -0.00950312
v -2.81238 0.712107 -2.84793
vn 0.360373 -0.913767 0.187512
v -2.78343 0.729845 -3.00166
vn 0.441998 -0.869231 -0.221528
v -2.88719 0.712545 -3.05938
vn 0.177951 -0.915402 -0.361073
v -2.97851 0.686132 -2.85693
vn -0.0621902 -0.987522 0.144685
v -3.20119 0.770293 -2.92592
vn -0.656221 -0.754438 0.0140773
v -3.1787 0.768729 -2.82026
vn -0.617858 -0.755296 0.218585
v -3.06479 0.807122 -2.65016
vn -0.278045 -0.669478 0.688832
v -2.96501 0.770292 -2.6687
vn 0.0140804 -0.754421 0.656239
v -2.99657 0.82946 -2.61649
vn -0.0568379 -0.602279 0.79626
v -3.2868 1.40801 -2.92305
vn -0.657722 0.726254 0.199892
v -2.537 1.04545 -2.86242
vn 0.904942 -0.417585 -0.081868
v -2.63033 0.870827 -2.8659
vn 0.869437 -0.490191 0.0615855
v -2.67897 0.863821 -2.73584
vn 0.719942 -0.524185 0.454878
v -2.72131 1.46155 -2.97759
vn 0.548275 0.810156 -0.207468
v -2.62213 1.40796 -2.90776
vn 0.657867 0.726114 -0.199922
v -2.69737 1.3918 -3.15625
vn 0.673603 0.658096 -0.336405
v -2.87793 1.43654 -3.21668
vn 0.0665757 0.838802 -0.540351
v -2.80607 1.39791 -3.23564
vn 0.401876 0.498387 -0.768184
v -2.94685 1.40797 -3.24776
vn -0.199864 0.726134 -0.657863
v -3.23315 0.808698 -2.87529
vn -0.764075 -0.628292 0.14642
v -3.25339 0.829456 -2.95748
vn -0.79624 -0.602307 -0.0568059
v -3.21976 0.807139 -3.02568
vn -0.689091 -0.669351 -0.27771
v -2.90499 0.870828 -3.23956
vn 0.0615897 -0.490182 -0.869441
v -3.08488 0.806415 -3.1646
vn -0.344343 -0.650474 -0.676986
v -3.16707 0.750795 -2.99163
vn -0.556204 -0.811086 -0.181042
v -2.96409 0.68847 -3.00078
vn -0.0142663 -0.974586 -0.22356
v -2.87833 0.751449 -3.12894
vn 0.181536 -0.808499 -0.559799
v -3.18766 1.46156 -2.85321
vn -0.548185 0.810217 0.207465
v -3.25349 0.909078 -2.7538
vn -0.861928 -0.365176 0.351748
v -3.00399 0.870827 -2.59124
vn -0.0616422 -0.490195 0.86943
v -2.91816 0.863912 -2.59838
vn 0.121929 -0.481104 0.868143
v -2.98709 1.30434 -2.50007
vn 0.0174092 0.367338 0.929925
v -2.71364 1.3918 -2.65829
vn 0.336437 0.65809 0.673593
v -2.54614 1.13499 -2.72837
vn 0.878342 0.168301 0.447426
v -2.53918 1.30437 -2.8828
vn 0.929923 0.367342 -0.01743
v -2.86819 0.729353 -2.74534
vn 0.220783 -0.871218 0.438445
v -2.87927 0.69489 -2.83929
vn 0.188905 -0.957774 0.216759
v -2.70774 0.770337 -2.90484
vn 0.656744 -0.753988 -0.0137246
v -2.85943 0.693443 -2.89521
vn 0.23585 -0.968989 0.0737185
v -2.87534 0.695428 -2.99171
vn 0.213781 -0.956234 -0.199787
v -2.93141 0.68423 -2.87342
vn 0.0643159 -0.993683 0.0919605
v -3.04799 0.692885 -2.90135
vn -0.232218 -0.970169 0.0696203
v -3.20372 0.806468 -2.78496
vn -0.677294 -0.649976 0.344679
v -3.0697 0.862712 -2.61012
vn -0.275585 -0.519436 0.808851
v -3.25575 1.43656 -2.99193
vn -0.540204 0.838903 -0.0664945
v -2.97684 1.48217 -3.12505
vn -0.102521 0.867833 -0.486163
v -3.27151 0.86391 -2.87907
vn -0.868136 -0.481119 0.121919
v -2.85013 1.03531 -3.32587
vn 0.0918091 -0.446812 -0.889904
v -2.83928 0.862712 -3.22067
vn 0.275645 -0.519443 -0.808825
v -3.09017 0.706577 -2.87819
vn -0.363509 -0.928934 0.0703054
v -3.1445 0.730949 -2.91592
vn -0.495643 -0.868461 0.0106117
v -2.99725 0.708943 -3.05566
vn -0.0743533 -0.930335 -0.359094
v -3.109 1.45373 -2.68335
vn -0.301996 0.902421 0.307301
v -3.14834 1.48168 -2.84313
vn -0.456585 0.856432 0.240944
v -3.08071 1.50905 -2.96968
vn -0.212783 0.962387 -0.168922
v -3.11679 1.49987 -2.96515
vn -0.305841 0.937773 -0.164446
v -3.10288 1.50838 -2.91186
vn -0.276139 0.960802 0.0246503
v -2.89705 0.903034 -2.58391
vn 0.236334 -0.391319 0.889391
v -3.00746 1.04546 -2.4979
vn 0.0819536 -0.417535 0.904957
v -2.91438 0.808699 -2.63673
vn 0.146445 -0.628279 0.764081
v -2.96213 1.40796 -2.58303
vn 0.199898 0.7261 0.65789
v -2.65318 1.43653 -2.83885
vn 0.540408 0.83877 0.0665198
v -2.77676 1.49628 -2.87955
vn 0.376128 0.917163 0.131684
v -2.72244 1.45373 -2.76089
vn 0.307302 0.902423 0.30199
v -2.63425 1.39792 -2.76702
vn 0.76818 0.498384 0.401887
v -2.88222 1.48167 -2.72151
vn 0.240932 0.856394 0.456664
v -2.91812 0.70638 -2.78009
vn 0.0648329 -0.930936 0.359381
v -2.81794 0.706797 -2.95082
vn 0.364935 -0.928987 -0.061685
v -2.88985 0.687153 -2.94095
vn 0.174905 -0.981749 -0.0746746
v -2.94825 0.685702 -2.85592
vn 0.0309447 -0.987966 0.151545
v -3.03193 0.695538 -2.83849
vn -0.224796 -0.953082 0.202733
v -2.97557 0.694127 -2.81788
vn -0.0787762 -0.96505 0.249947
v -3.07141 0.699451 -2.91811
vn -0.339948 -0.94039 -0.0100548
v -3.27468 1.39796 -3.06379
vn -0.768104 0.498499 -0.401889
v -3.18653 1.45373 -3.06991
vn -0.307227 0.902448 -0.301991
v -2.95678 1.52 -2.84825
vn -0.00331006 0.999976 0.00613435
v -2.88032 1.51975 -2.9079
vn 0.044025 0.998747 0.0237841
v -2.88529 1.51995 -2.91875
vn 0.018453 0.999715 -0.0151307
v -2.94499 1.51948 -2.83819
vn 0.0425337 0.997447 0.0573586
v -2.74484 1.48218 -2.93775
vn 0.486205 0.867802 -0.10259
v -2.79998 1.45373 -3.14745
vn 0.302016 0.902422 -0.307279
v -2.91856 1.49629 -3.09308
vn 0.131762 0.917158 -0.376112
v -2.95266 1.49016 -3.11191
vn -0.0143608 0.901237 -0.433089
v -2.95802 1.50837 -3.06382
vn -0.0246824 0.960797 -0.27615
v -3.01668 1.46156 -3.14857
vn -0.207473 0.810223 -0.548173
v -3.27865 0.870827 -2.9649
vn -0.869435 -0.490185 -0.0616489
v -3.28598 0.903039 -2.85795
vn -0.889396 -0.391268 0.2364
v -2.84422 0.807183 -3.18071
vn 0.277636 -0.668927 -0.689532
v -3.16414 1.48217 -2.89305
vn -0.486179 0.867813 0.102622
v -3.15104 1.49014 -2.91714
vn -0.433172 0.901192 0.0146703
v -3.09762 1.50017 -2.99145
vn -0.257004 0.9357 -0.24169
v -3.03127 1.49947 -3.05966
vn -0.251427 0.931556 -0.262656
v -3.12048 1.49533 -2.85016
vn -0.342063 0.919883 0.191855
v -3.09875 1.49946 -2.83861
vn -0.262679 0.931533 0.251489
v -3.13219 1.49629 -2.95129
vn -0.376085 0.917171 -0.13175
v -2.99548 1.51408 -2.8055
vn -0.117701 0.98191 0.148323
v -3.05475 1.51678 -2.88803
vn -0.119126 0.990127 0.0738708
v -3.07204 1.51197 -2.8691
vn -0.174534 0.974429 0.141514
v -3.03108 1.43653 -2.6141
vn -0.0665978 0.838681 0.540536
v -3.03055 1.50017 -2.77226
vn -0.241752 0.935658 0.257098
v -3.00421 1.49986 -2.75306
vn -0.164376 0.937727 0.306021
v -2.97359 1.49389 -2.72814
vn -0.0562581 0.914857 0.39984
v -2.95094 1.50838 -2.767
vn 0.0247496 0.960784 0.276192
v -2.99036 1.49628 -2.73767
vn -0.131802 0.917158 0.376097
v -2.88925 1.49532 -2.7494
vn 0.191866 0.919871 0.34209
v -2.89524 1.50653 -2.78264
vn 0.18824 0.953797 0.234171
v -2.95509 0.730944 -2.72538
vn 0.010091 -0.868692 0.49525
v -2.89444 0.685675 -2.91581
vn 0.149349 -0.988784 0.00115717
v -2.85236 0.694785 -2.92002
vn 0.280916 -0.959352 -0.0270048
v -2.94953 0.69393 -2.81632
vn 0.0279092 -0.96311 0.267658
v -3.04544 0.692179 -2.94849
vn -0.248612 -0.963882 -0.0955177
v -2.97489 1.51817 -2.8227
vn -0.0507082 0.994111 0.0957689
v -2.8614 1.51812 -2.89471
vn 0.099741 0.993571 0.0535559
v -2.84456 1.51407 -2.8744
vn 0.148455 0.98188 0.117784
v -2.80609 1.50837 -2.91892
vn 0.276116 0.960808 -0.0246462
v -2.9082 1.51197 -2.79787
vn 0.141505 0.974445 0.174448
v -2.87769 1.49946 -2.77113
vn 0.251489 0.931509 0.262762
v -2.81135 1.50017 -2.83935
vn 0.257063 0.935682 0.241699
v -2.75799 1.49016 -2.91355
vn 0.433113 0.901222 -0.0145313
v -2.93418 1.51821 -3.00771
vn 0.0497963 0.99452 -0.0919203
v -2.85482 1.51688 -2.94238
vn 0.113072 0.991118 -0.0699933
v -2.87844 1.50017 -3.05854
vn 0.241691 0.935687 -0.257052
v -2.81023 1.49946 -2.9922
vn 0.262652 0.931539 -0.251493
v -2.82174 1.50653 -2.97464
vn 0.234126 0.953817 -0.188197
v -2.78851 1.49533 -2.98065
vn 0.342017 0.9199 -0.191856
v -2.9354 1.49388 -3.10268
vn 0.0566423 0.914901 -0.399685
v -3.02676 1.48168 -3.10925
vn -0.240948 0.85644 -0.456568
v -3.00084 1.51196 -3.033
vn -0.141694 0.974368 -0.17473
v -3.01371 1.50654 -3.04812
vn -0.188314 0.953758 -0.234274
v -3.14183 1.49386 -2.93437
vn -0.399944 0.914826 -0.0560134
v -2.98151 1.51688 -3.01507
vn -0.0703745 0.991083 -0.113144
v -2.96046 1.51975 -2.98819
vn -0.041298 0.997661 -0.0544741
v -3.04683 1.51821 -2.93575
vn -0.0923041 0.994458 -0.0503221
v -3.02221 1.51999 -2.91815
vn -0.0092587 0.999942 -0.00551885
v -3.08726 1.50652 -2.85614
vn -0.234325 0.953734 0.188372
v -2.95637 1.49017 -2.71891
vn 0.0142398 0.901275 0.433013
v -3.10295 1.39786 -2.59513
vn -0.40192 0.498283 0.768228
v -3.00877 1.50906 -2.78919
vn -0.168851 0.962421 0.212685
v -3.05497 0.694182 -2.93169
vn -0.291889 -0.956296 -0.0173088
v -2.92711 1.51678 -2.81513
vn 0.073986 0.990111 0.119192
v -2.82831 1.50907 -2.86117
vn 0.212516 0.962489 0.168676
v -2.76713 1.49386 -2.89644
vn 0.399823 0.914863 0.0562697
v -2.83695 1.51197 -2.96169
vn 0.174541 0.974427 -0.141519
v -2.90473 1.49987 -3.0777
vn 0.164412 0.937766 -0.305882
v -2.7606 1.48167 -2.98767
vn 0.456681 0.85638 -0.240947
v -3.01971 1.49533 -3.08138
vn -0.191822 0.919919 -0.341985
v -2.9519 1.52 -2.9826
vn 0.00409315 0.999982 -0.00431608
v -3.03138 1.51951 -2.90604
vn -0.054103 0.997689 0.0411043
v -3.06444 1.51407 -2.95642
vn -0.148477 0.981869 -0.117844
v -2.93214 1.48217 -2.70575
vn 0.102553 0.867818 0.486184
v -2.79217 1.49986 -2.86566
vn 0.305992 0.937746 0.16432
v -2.90026 1.50907 -3.04158
vn 0.168718 0.962477 -0.212536
v -2.8923 1.46155 -2.68223
vn 0.207468 0.810179 0.54824
v -2.91349 1.51407 -3.02533
vn 0.1178 0.981876 -0.148469
f 1//1 2//2 3//3
f 4//4 5//5 6//6
f 7//7 8//8 9//9
f 8//8 7//7 10//10
f 10//10 7//7 11//11
f 12//12 13//13 14//14
f 15//15 13//13 16//16
f 17//17 10//10 18//18
f 8//8 10//10 19//19
f 19//19 17//17 20//20
f 10//10 17//17 19//19
f 21//21 19//19 20//20
f 22//22 19//19 21//21
f 23//23 19//19 22//22
f 24//24 15//15 16//16
f 25//25 1//1 3//3
f 3//3 26//26 25//25
f 4//4 6//6 27//27
f 28//28 29//29 30//30
f 31//31 32//32 33//33
f 34//34 32//32 35//35
f 36//36 37//37 38//38
f 36//36 39//39 40//40
f 41//41 26//26 42//42
f 43//43 26//26 41//41
f 11//11 7//7 44//44
f 44//44 5//5 4//4
f 4//4 11//11 44//44
f 45//45 11//11 4//4
f 45//45 10//10 11//11
f 4//4 27//27 45//45
f 46//46 12//12 14//14
f 46//46 47//47 12//12
f 48//48 49//49 50//50
f 22//22 21//21 51//51
f 52//52 53//53 51//51
f 51//51 23//23 22//22
f 54//54 24//24 55//55
f 9//9 8//8 56//56
f 56//56 23//23 9//9
f 8//8 19//19 56//56
f 19//19 23//23 56//56
f 9//9 23//23 57//57
f 23//23 51//51 57//57
f 57//57 51//51 53//53
f 15//15 24//24 58//58
f 20//20 17//17 58//58
f 58//58 17//17 15//15
f 58//58 54//54 20//20
f 24//24 54//54 58//58
f 16//16 13//13 59//59
f 13//13 12//12 59//59
f 60//60 61//61 62//62
f 62//62 61//61 55//55
f 62//62 47//47 60//60
f 12//12 47//47 62//62
f 62//62 59//59 12//12
f 55//55 24//24 62//62
f 62//62 24//24 16//16
f 16//16 59//59 62//62
f 9//9 63//63 64//64
f 64//64 7//7 9//9
f 64//64 44//44 7//7
f 65//65 44//44 64//64
f 66//66 63//63 67//67
f 67//67 68//68 66//66
f 69//69 70//70 66//66
f 66//66 70//70 63//63
f 71//71 53//53 52//52
f 67//67 53//53 71//71
f 71//71 68//68 67//67
f 72//72 45//45 73//73
f 2//2 1//1 73//73
f 1//1 74//74 73//73
f 73//73 27//27 2//2
f 73//73 45//45 27//27
f 75//75 76//76 3//3
f 34//34 77//77 78//78
f 77//77 79//79 78//78
f 78//78 32//32 34//34
f 78//78 79//79 32//32
f 33//33 32//32 80//80
f 32//32 79//79 80//80
f 1//1 25//25 81//81
f 81//81 74//74 1//1
f 82//82 74//74 81//81
f 81//81 83//83 82//82
f 84//84 77//77 34//34
f 34//34 35//35 84//84
f 85//85 31//31 33//33
f 86//86 46//46 49//49
f 60//60 47//47 86//86
f 47//47 46//46 86//86
f 87//87 61//61 60//60
f 60//60 86//86 87//87
f 48//48 31//31 88//88
f 89//89 88//88 90//90
f 90//90 88//88 31//31
f 91//91 92//92 61//61
f 61//61 87//87 91//91
f 93//93 39//39 36//36
f 94//94 42//42 95//95
f 95//95 42//42 26//26
f 96//96 25//25 26//26
f 26//26 43//43 96//96
f 96//96 97//97 98//98
f 96//96 43//43 97//97
f 99//99 45//45 72//72
f 100//100 13//13 28//28
f 28//28 30//30 100//100
f 14//14 13//13 100//100
f 100//100 46//46 14//14
f 101//101 50//50 49//49
f 101//101 100//100 30//30
f 101//101 30//30 29//29
f 29//29 50//50 101//101
f 49//49 46//46 101//101
f 46//46 100//100 101//101
f 102//102 35//35 32//32
f 48//48 50//50 102//102
f 29//29 35//35 102//102
f 102//102 50//50 29//29
f 102//102 31//31 48//48
f 32//32 31//31 102//102
f 103//103 104//104 105//105
f 17//17 106//106 107//107
f 105//105 15//15 107//107
f 15//15 17//17 107//107
f 108//108 17//17 18//18
f 108//108 106//106 17//17
f 109//109 110//110 94//94
f 94//94 95//95 109//109
f 111//111 110//110 65//65
f 65//65 64//64 111//111
f 111//111 64//64 63//63
f 94//94 110//110 111//111
f 52//52 51//51 112//112
f 112//112 51//51 21//21
f 113//113 53//53 67//67
f 113//113 57//57 53//53
f 9//9 57//57 113//113
f 113//113 63//63 9//9
f 67//67 63//63 113//113
f 63//63 70//70 114//114
f 94//94 111//111 114//114
f 114//114 111//111 63//63
f 115//115 37//37 36//36
f 36//36 40//40 115//115
f 115//115 40//40 69//69
f 116//116 92//92 68//68
f 68//68 71//71 116//116
f 61//61 92//92 116//116
f 117//117 99//99 72//72
f 2//2 27//27 118//118
f 27//27 75//75 118//118
f 3//3 2//2 118//118
f 118//118 75//75 3//3
f 83//83 81//81 119//119
f 120//120 80//80 79//79
f 120//120 119//119 98//98
f 82//82 77//77 121//121
f 77//77 84//84 121//121
f 121//121 84//84 122//122
f 121//121 74//74 82//82
f 121//121 73//73 74//74
f 123//123 84//84 35//35
f 123//123 29//29 28//28
f 123//123 35//35 29//29
f 28//28 13//13 124//124
f 124//124 123//123 28//28
f 84//84 123//123 124//124
f 13//13 15//15 124//124
f 105//105 104//104 124//124
f 124//124 15//15 105//105
f 31//31 85//85 125//125
f 126//126 90//90 125//125
f 125//125 90//90 31//31
f 125//125 85//85 97//97
f 127//127 88//88 89//89
f 127//127 87//87 86//86
f 127//127 86//86 49//49
f 89//89 91//91 127//127
f 127//127 91//91 87//87
f 127//127 49//49 48//48
f 48//48 88//88 127//127
f 126//126 38//38 128//128
f 128//128 90//90 126//126
f 92//92 91//91 129//129
f 37//37 115//115 129//129
f 129//129 115//115 92//92
f 36//36 38//38 130//130
f 130//130 38//38 126//126
f 131//131 40//40 39//39
f 132//132 26//26 3//3
f 132//132 95//95 26//26
f 3//3 76//76 132//132
f 76//76 109//109 132//132
f 132//132 109//109 95//95
f 133//133 81//81 25//25
f 25//25 96//96 133//133
f 133//133 119//119 81//81
f 133//133 96//96 98//98
f 98//98 119//119 133//133
f 45//45 99//99 134//134
f 106//106 108//108 135//135
f 110//110 109//109 136//136
f 76//76 75//75 136//136
f 136//136 109//109 76//76
f 137//137 112//112 21//21
f 54//54 112//112 137//137
f 137//137 21//21 20//20
f 20//20 54//54 137//137
f 138//138 54//54 55//55
f 138//138 112//112 54//54
f 52//52 112//112 138//138
f 70//70 139//139 140//140
f 140//140 114//114 70//70
f 94//94 114//114 140//140
f 140//140 42//42 94//94
f 140//140 139//139 42//42
f 68//68 92//92 141//141
f 92//92 115//115 141//141
f 141//141 66//66 68//68
f 69//69 66//66 141//141
f 141//141 115//115 69//69
f 72//72 142//142 143//143
f 143//143 117//117 72//72
f 144//144 145//145 146//146
f 147//147 79//79 77//77
f 147//147 120//120 79//79
f 148//148 77//77 82//82
f 82//82 83//83 148//148
f 148//148 147//147 77//77
f 120//120 147//147 148//148
f 83//83 119//119 148//148
f 119//119 120//120 148//148
f 33//33 80//80 149//149
f 80//80 120//120 149//149
f 149//149 85//85 33//33
f 97//97 85//85 149//149
f 98//98 97//97 149//149
f 149//149 120//120 98//98
f 150//150 121//121 122//122
f 151//151 124//124 104//104
f 151//151 152//152 153//153
f 122//122 84//84 154//154
f 84//84 124//124 154//154
f 124//124 151//151 154//154
f 154//154 153//153 122//122
f 154//154 151//151 153//153
f 122//122 153//153 155//155
f 126//126 125//125 156//156
f 157//157 129//129 91//91
f 157//157 91//91 89//89
f 89//89 90//90 157//157
f 37//37 129//129 158//158
f 159//159 93//93 36//36
f 36//36 130//130 159//159
f 159//159 130//130 126//126
f 160//160 131//131 39//39
f 139//139 131//131 160//160
f 39//39 93//93 160//160
f 41//41 42//42 160//160
f 42//42 139//139 160//160
f 160//160 161//161 41//41
f 160//160 93//93 161//161
f 162//162 139//139 70//70
f 162//162 131//131 139//139
f 163//163 164//164 18//18
f 163//163 134//134 164//164
f 45//45 134//134 163//163
f 18//18 10//10 163//163
f 10//10 45//45 163//163
f 165//165 166//166 167//167
f 168//168 166//166 165//165
f 104//104 103//103 169//169
f 169//169 151//151 104//104
f 170//170 107//107 106//106
f 106//106 171//171 170//170
f 105//105 107//107 170//170
f 106//106 135//135 172//172
f 172//172 135//135 173//173
f 174//174 108//108 18//18
f 174//174 135//135 108//108
f 175//175 136//136 6//6
f 110//110 136//136 175//175
f 175//175 6//6 5//5
f 65//65 110//110 175//175
f 5//5 44//44 175//175
f 175//175 44//44 65//65
f 176//176 27//27 6//6
f 6//6 136//136 176//176
f 176//176 75//75 27//27
f 176//176 136//136 75//75
f 55//55 61//61 177//177
f 177//177 138//138 55//55
f 61//61 116//116 177//177
f 52//52 138//138 177//177
f 177//177 71//71 52//52
f 177//177 116//116 71//71
f 117//117 143//143 178//178
f 179//179 134//134 178//178
f 178//178 146//146 179//179
f 99//99 117//117 178//178
f 178//178 134//134 99//99
f 164//164 145//145 180//180
f 180//180 145//145 144//144
f 180//180 181//181 164//164
f 182//182 142//142 183//183
f 182//182 143//143 142//142
f 182//182 178//178 143//143
f 146//146 178//178 182//182
f 184//184 146//146 145//145
f 164//164 134//134 184//184
f 184//184 145//145 164//164
f 185//185 186//186 187//187
f 187//187 186//186 146//146
f 121//121 150//150 188//188
f 183//183 142//142 189//189
f 142//142 190//190 189//189
f 191//191 192//192 193//193
f 193//193 192//192 190//190
f 193//193 188//188 191//191
f 193//193 190//190 142//142
f 142//142 188//188 193//193
f 194//194 155//155 153//153
f 195//195 192//192 194//194
f 196//196 43//43 41//41
f 41//41 156//156 196//196
f 97//97 43//43 196//196
f 196//196 125//125 97//97
f 196//196 156//156 125//125
f 197//197 38//38 37//37
f 37//37 158//158 197//197
f 197//197 128//128 38//38
f 129//129 157//157 198//198
f 198//198 158//158 129//129
f 90//90 128//128 198//198
f 198//198 157//157 90//90
f 128//128 197//197 198//198
f 198//198 197//197 158//158
f 41//41 161//161 199//199
f 199//199 156//156 41//41
f 161//161 93//93 199//199
f 93//93 159//159 199//199
f 126//126 156//156 199//199
f 199//199 159//159 126//126
f 69//69 40//40 200//200
f 200//200 70//70 69//69
f 185//185 192//192 201//201
f 201//201 168//168 165//165
f 201//201 186//186 185//185
f 202//202 203//203 204//204
f 166//166 168//168 202//202
f 205//205 192//192 195//195
f 206//206 194//194 153//153
f 195//195 194//194 206//206
f 207//207 206//206 153//153
f 195//195 206//206 207//207
f 208//208 169//169 204//204
f 151//151 169//169 208//208
f 209//209 167//167 210//210
f 210//210 202//202 204//204
f 210//210 167//167 166//166
f 166//166 202//202 210//210
f 211//211 212//212 170//170
f 211//211 213//213 212//212
f 204//204 169//169 214//214
f 214//214 213//213 204//204
f 212//212 213//213 214//214
f 170//170 212//212 214//214
f 215//215 171//171 106//106
f 106//106 172//172 215//215
f 173//173 171//171 215//215
f 215//215 172//172 173//173
f 135//135 174//174 216//216
f 18//18 164//164 216//216
f 216//216 174//174 18//18
f 144//144 217//217 218//218
f 218//218 180//180 144//144
f 181//181 180//180 218//218
f 218//218 217//217 173//173
f 219//219 134//134 179//179
f 219//219 184//184 134//134
f 179//179 146//146 219//219
f 146//146 184//184 219//219
f 220//220 221//221 209//209
f 220//220 209//209 173//173
f 173//173 217//217 220//220
f 146//146 186//186 222//222
f 223//223 221//221 222//222
f 221//221 220//220 222//222
f 146//146 182//182 224//224
f 224//224 187//187 146//146
f 224//224 182//182 183//183
f 183//183 189//189 224//224
f 191//191 188//188 225//225
f 225//225 192//192 191//191
f 226//226 142//142 72//72
f 226//226 188//188 142//142
f 121//121 188//188 226//226
f 72//72 73//73 226//226
f 73//73 121//121 226//226
f 227//227 189//189 190//190
f 227//227 192//192 185//185
f 190//190 192//192 227//227
f 227//227 224//224 189//189
f 185//185 187//187 227//227
f 187//187 224//224 227//227
f 131//131 162//162 228//228
f 40//40 131//131 228//228
f 228//228 200//200 40//40
f 228//228 162//162 70//70
f 70//70 200//200 228//228
f 203//203 202//202 229//229
f 229//229 205//205 203//203
f 229//229 202//202 168//168
f 168//168 201//201 229//229
f 229//229 201//201 192//192
f 192//192 205//205 229//229
f 204//204 203//203 230//230
f 195//195 207//207 230//230
f 230//230 205//205 195//195
f 203//203 205//205 230//230
f 204//204 152//152 231//231
f 231//231 208//208 204//204
f 152//152 151//151 231//231
f 151//151 208//208 231//231
f 232//232 210//210 204//204
f 204//204 213//213 232//232
f 233//233 170//170 171//171
f 233//233 211//211 170//170
f 233//233 171//171 173//173
f 170//170 214//214 234//234
f 234//234 103//103 105//105
f 105//105 170//170 234//234
f 234//234 169//169 103//103
f 234//234 214//214 169//169
f 173//173 135//135 235//235
f 135//135 216//216 235//235
f 235//235 218//218 173//173
f 181//181 218//218 235//235
f 164//164 181//181 235//235
f 235//235 216//216 164//164
f 236//236 167//167 209//209
f 209//209 221//221 236//236
f 236//236 221//221 223//223
f 165//165 167//167 236//236
f 236//236 223//223 165//165
f 237//237 222//222 186//186
f 223//223 222//222 237//237
f 186//186 201//201 237//237
f 165//165 223//223 237//237
f 237//237 201//201 165//165
f 144//144 146//146 238//238
f 146//146 222//222 238//238
f 238//238 217//217 144//144
f 238//238 220//220 217//217
f 238//238 222//222 220//220
f 239//239 188//188 150//150
f 239//239 225//225 188//188
f 155//155 194//194 239//239
f 239//239 194//194 192//192
f 192//192 225//225 239//239
f 240//240 230//230 207//207
f 153//153 152//152 240//240
f 240//240 207//207 153//153
f 240//240 152//152 204//204
f 204//204 230//230 240//240
f 241//241 233//233 173//173
f 211//211 233//233 241//241
f 213//213 211//211 241//241
f 241//241 232//232 213//213
f 242//242 239//239 150//150
f 155//155 239//239 242//242
f 242//242 150//150 122//122
f 122//122 155//155 242//242
f 173//173 209//209 243//243
f 243//243 241//241 173//173
f 209//209 210//210 243//243
f 210//210 232//232 243//243
f 232//232 241//241 243//243
