v -0.02 -0.02 -0.02
v 0.02 -0.02 -0.02
v 0.02 0.02 -0.02
v -0.02 0.02 -0.02
v -0.02 -0.02 0.04
v 0.02 -0.02 0.04
v 0.02 0.02 0.04
v -0.02 0.02 0.04

vn 0 0 -1
vn 0 0 1
vn 0 -1 0
vn 0 1 0
vn -1 0 0
vn 1 0 0

# Bottom face (reversed winding)
f 1//1 4//1 3//1
f 1//1 3//1 2//1

# Top face (reversed winding)
f 5//2 6//2 7//2
f 5//2 7//2 8//2

# Front face (reversed winding)
f 1//3 2//3 6//3
f 1//3 6//3 5//3

# Back face (reversed winding)
f 3//4 4//4 8//4
f 3//4 8//4 7//4

# Left face (reversed winding)
f 4//5 1//5 5//5
f 4//5 5//5 8//5

# Right face (reversed winding)
f 2//6 3//6 7//6
f 2//6 7//6 6//6
