# Upsampled box mesh (0.04m x 0.04m x 0.06m - matching original box.obj)
# Each face is subdivided into 4x4 = 16 smaller faces for more contact points

# Bottom face (z = -0.02) - 5x5 grid
v -0.02 -0.02 -0.02
v -0.01 -0.02 -0.02
v 0.0 -0.02 -0.02
v 0.01 -0.02 -0.02
v 0.02 -0.02 -0.02
v -0.02 -0.01 -0.02
v -0.01 -0.01 -0.02
v 0.0 -0.01 -0.02
v 0.01 -0.01 -0.02
v 0.02 -0.01 -0.02
v -0.02 0.0 -0.02
v -0.01 0.0 -0.02
v 0.0 0.0 -0.02
v 0.01 0.0 -0.02
v 0.02 0.0 -0.02
v -0.02 0.01 -0.02
v -0.01 0.01 -0.02
v 0.0 0.01 -0.02
v 0.01 0.01 -0.02
v 0.02 0.01 -0.02
v -0.02 0.02 -0.02
v -0.01 0.02 -0.02
v 0.0 0.02 -0.02
v 0.01 0.02 -0.02
v 0.02 0.02 -0.02

# Top face (z = 0.04) - 5x5 grid
v -0.02 -0.02 0.04
v -0.01 -0.02 0.04
v 0.0 -0.02 0.04
v 0.01 -0.02 0.04
v 0.02 -0.02 0.04
v -0.02 -0.01 0.04
v -0.01 -0.01 0.04
v 0.0 -0.01 0.04
v 0.01 -0.01 0.04
v 0.02 -0.01 0.04
v -0.02 0.0 0.04
v -0.01 0.0 0.04
v 0.0 0.0 0.04
v 0.01 0.0 0.04
v 0.02 0.0 0.04
v -0.02 0.01 0.04
v -0.01 0.01 0.04
v 0.0 0.01 0.04
v 0.01 0.01 0.04
v 0.02 0.01 0.04
v -0.02 0.02 0.04
v -0.01 0.02 0.04
v 0.0 0.02 0.04
v 0.01 0.02 0.04
v 0.02 0.02 0.04

# Front face (y = -0.02) - 5x5 grid
v -0.02 -0.02 -0.02
v -0.01 -0.02 -0.02
v 0.0 -0.02 -0.02
v 0.01 -0.02 -0.02
v 0.02 -0.02 -0.02
v -0.02 -0.02 -0.005
v -0.01 -0.02 -0.005
v 0.0 -0.02 -0.005
v 0.01 -0.02 -0.005
v 0.02 -0.02 -0.005
v -0.02 -0.02 0.01
v -0.01 -0.02 0.01
v 0.0 -0.02 0.01
v 0.01 -0.02 0.01
v 0.02 -0.02 0.01
v -0.02 -0.02 0.025
v -0.01 -0.02 0.025
v 0.0 -0.02 0.025
v 0.01 -0.02 0.025
v 0.02 -0.02 0.025
v -0.02 -0.02 0.04
v -0.01 -0.02 0.04
v 0.0 -0.02 0.04
v 0.01 -0.02 0.04
v 0.02 -0.02 0.04

# Back face (y = 0.02) - 5x5 grid
v -0.02 0.02 -0.02
v -0.01 0.02 -0.02
v 0.0 0.02 -0.02
v 0.01 0.02 -0.02
v 0.02 0.02 -0.02
v -0.02 0.02 -0.005
v -0.01 0.02 -0.005
v 0.0 0.02 -0.005
v 0.01 0.02 -0.005
v 0.02 0.02 -0.005
v -0.02 0.02 0.01
v -0.01 0.02 0.01
v 0.0 0.02 0.01
v 0.01 0.02 0.01
v 0.02 0.02 0.01
v -0.02 0.02 0.025
v -0.01 0.02 0.025
v 0.0 0.02 0.025
v 0.01 0.02 0.025
v 0.02 0.02 0.025
v -0.02 0.02 0.04
v -0.01 0.02 0.04
v 0.0 0.02 0.04
v 0.01 0.02 0.04
v 0.02 0.02 0.04

# Left face (x = -0.02) - 5x5 grid
v -0.02 -0.02 -0.02
v -0.02 -0.01 -0.02
v -0.02 0.0 -0.02
v -0.02 0.01 -0.02
v -0.02 0.02 -0.02
v -0.02 -0.02 -0.005
v -0.02 -0.01 -0.005
v -0.02 0.0 -0.005
v -0.02 0.01 -0.005
v -0.02 0.02 -0.005
v -0.02 -0.02 0.01
v -0.02 -0.01 0.01
v -0.02 0.0 0.01
v -0.02 0.01 0.01
v -0.02 0.02 0.01
v -0.02 -0.02 0.025
v -0.02 -0.01 0.025
v -0.02 0.0 0.025
v -0.02 0.01 0.025
v -0.02 0.02 0.025
v -0.02 -0.02 0.04
v -0.02 -0.01 0.04
v -0.02 0.0 0.04
v -0.02 0.01 0.04
v -0.02 0.02 0.04

# Right face (x = 0.02) - 5x5 grid
v 0.02 -0.02 -0.02
v 0.02 -0.01 -0.02
v 0.02 0.0 -0.02
v 0.02 0.01 -0.02
v 0.02 0.02 -0.02
v 0.02 -0.02 -0.005
v 0.02 -0.01 -0.005
v 0.02 0.0 -0.005
v 0.02 0.01 -0.005
v 0.02 0.02 -0.005
v 0.02 -0.02 0.01
v 0.02 -0.01 0.01
v 0.02 0.0 0.01
v 0.02 0.01 0.01
v 0.02 0.02 0.01
v 0.02 -0.02 0.025
v 0.02 -0.01 0.025
v 0.02 0.0 0.025
v 0.02 0.01 0.025
v 0.02 0.02 0.025
v 0.02 -0.02 0.04
v 0.02 -0.01 0.04
v 0.02 0.0 0.04
v 0.02 0.01 0.04
v 0.02 0.02 0.04

# Vertex normals
vn 0 0 -1
vn 0 0 1
vn 0 -1 0
vn 0 1 0
vn -1 0 0
vn 1 0 0

# Bottom face (z = -0.02) - 16 quads = 32 triangles (reversed winding)
f 1//1 6//1 7//1
f 1//1 7//1 2//1
f 2//1 7//1 8//1
f 2//1 8//1 3//1
f 3//1 8//1 9//1
f 3//1 9//1 4//1
f 4//1 9//1 10//1
f 4//1 10//1 5//1
f 6//1 11//1 12//1
f 6//1 12//1 7//1
f 7//1 12//1 13//1
f 7//1 13//1 8//1
f 8//1 13//1 14//1
f 8//1 14//1 9//1
f 9//1 14//1 15//1
f 9//1 15//1 10//1
f 11//1 16//1 17//1
f 11//1 17//1 12//1
f 12//1 17//1 18//1
f 12//1 18//1 13//1
f 13//1 18//1 19//1
f 13//1 19//1 14//1
f 14//1 19//1 20//1
f 14//1 20//1 15//1
f 16//1 21//1 22//1
f 16//1 22//1 17//1
f 17//1 22//1 23//1
f 17//1 23//1 18//1
f 18//1 23//1 24//1
f 18//1 24//1 19//1
f 19//1 24//1 25//1
f 19//1 25//1 20//1

# Top face (z = 0.04) - 16 quads = 32 triangles (reversed winding)
f 26//2 27//2 32//2
f 26//2 32//2 31//2
f 27//2 28//2 33//2
f 27//2 33//2 32//2
f 28//2 29//2 34//2
f 28//2 34//2 33//2
f 29//2 30//2 35//2
f 29//2 35//2 34//2
f 31//2 32//2 37//2
f 31//2 37//2 36//2
f 32//2 33//2 38//2
f 32//2 38//2 37//2
f 33//2 34//2 39//2
f 33//2 39//2 38//2
f 34//2 35//2 40//2
f 34//2 40//2 39//2
f 36//2 37//2 42//2
f 36//2 42//2 41//2
f 37//2 38//2 43//2
f 37//2 43//2 42//2
f 38//2 39//2 44//2
f 38//2 44//2 43//2
f 39//2 40//2 45//2
f 39//2 45//2 44//2
f 41//2 42//2 47//2
f 41//2 47//2 46//2
f 42//2 43//2 48//2
f 42//2 48//2 47//2
f 43//2 44//2 49//2
f 43//2 49//2 48//2
f 44//2 45//2 50//2
f 44//2 50//2 49//2

# Front face (y = -0.02) - 16 quads = 32 triangles (reversed winding)
f 51//3 52//3 57//3
f 51//3 57//3 56//3
f 52//3 53//3 58//3
f 52//3 58//3 57//3
f 53//3 54//3 59//3
f 53//3 59//3 58//3
f 54//3 55//3 60//3
f 54//3 60//3 59//3
f 56//3 57//3 62//3
f 56//3 62//3 61//3
f 57//3 58//3 63//3
f 57//3 63//3 62//3
f 58//3 59//3 64//3
f 58//3 64//3 63//3
f 59//3 60//3 65//3
f 59//3 65//3 64//3
f 61//3 62//3 67//3
f 61//3 67//3 66//3
f 62//3 63//3 68//3
f 62//3 68//3 67//3
f 63//3 64//3 69//3
f 63//3 69//3 68//3
f 64//3 65//3 70//3
f 64//3 70//3 69//3
f 66//3 67//3 72//3
f 66//3 72//3 71//3
f 67//3 68//3 73//3
f 67//3 73//3 72//3
f 68//3 69//3 74//3
f 68//3 74//3 73//3
f 69//3 70//3 75//3
f 69//3 75//3 74//3

# Back face (y = 0.02) - 16 quads = 32 triangles (reversed winding)
f 76//4 81//4 82//4
f 76//4 82//4 77//4
f 77//4 82//4 83//4
f 77//4 83//4 78//4
f 78//4 83//4 84//4
f 78//4 84//4 79//4
f 79//4 84//4 85//4
f 79//4 85//4 80//4
f 81//4 86//4 87//4
f 81//4 87//4 82//4
f 82//4 87//4 88//4
f 82//4 88//4 83//4
f 83//4 88//4 89//4
f 83//4 89//4 84//4
f 84//4 89//4 90//4
f 84//4 90//4 85//4
f 86//4 91//4 92//4
f 86//4 92//4 87//4
f 87//4 92//4 93//4
f 87//4 93//4 88//4
f 88//4 93//4 94//4
f 88//4 94//4 89//4
f 89//4 94//4 95//4
f 89//4 95//4 90//4
f 91//4 96//4 97//4
f 91//4 97//4 92//4
f 92//4 97//4 98//4
f 92//4 98//4 93//4
f 93//4 98//4 99//4
f 93//4 99//4 94//4
f 94//4 99//4 100//4
f 94//4 100//4 95//4

# Left face (x = -0.02) - 16 quads = 32 triangles (reversed winding)
f 101//5 106//5 107//5
f 101//5 107//5 102//5
f 102//5 107//5 108//5
f 102//5 108//5 103//5
f 103//5 108//5 109//5
f 103//5 109//5 104//5
f 104//5 109//5 110//5
f 104//5 110//5 105//5
f 106//5 111//5 112//5
f 106//5 112//5 107//5
f 107//5 112//5 113//5
f 107//5 113//5 108//5
f 108//5 113//5 114//5
f 108//5 114//5 109//5
f 109//5 114//5 115//5
f 109//5 115//5 110//5
f 111//5 116//5 117//5
f 111//5 117//5 112//5
f 112//5 117//5 118//5
f 112//5 118//5 113//5
f 113//5 118//5 119//5
f 113//5 119//5 114//5
f 114//5 119//5 120//5
f 114//5 120//5 115//5
f 116//5 121//5 122//5
f 116//5 122//5 117//5
f 117//5 122//5 123//5
f 117//5 123//5 118//5
f 118//5 123//5 124//5
f 118//5 124//5 119//5
f 119//5 124//5 125//5
f 119//5 125//5 120//5

# Right face (x = 0.02) - 16 quads = 32 triangles (reversed winding)
f 126//6 127//6 132//6
f 126//6 132//6 131//6
f 127//6 128//6 133//6
f 127//6 133//6 132//6
f 128//6 129//6 134//6
f 128//6 134//6 133//6
f 129//6 130//6 135//6
f 129//6 135//6 134//6
f 131//6 132//6 137//6
f 131//6 137//6 136//6
f 132//6 133//6 138//6
f 132//6 138//6 137//6
f 133//6 134//6 139//6
f 133//6 139//6 138//6
f 134//6 135//6 140//6
f 134//6 140//6 139//6
f 136//6 137//6 142//6
f 136//6 142//6 141//6
f 137//6 138//6 143//6
f 137//6 143//6 142//6
f 138//6 139//6 144//6
f 138//6 144//6 143//6
f 139//6 140//6 145//6
f 139//6 145//6 144//6
f 141//6 142//6 147//6
f 141//6 147//6 146//6
f 142//6 143//6 148//6
f 142//6 148//6 147//6
f 143//6 144//6 149//6
f 143//6 149//6 148//6
f 144//6 145//6 150//6
f 144//6 150//6 149//6
